{"title":"Iron.Man.3.2013.iTALiAN.BRRip.XviD.AC3.1400MB-FRG","uid":8847032,"size":1468900652,"categoryP":"video","categoryS":"movies","magnet":"?xt=urn:btih:137f7ff5a32b89dbd03614c2498214807c1126a5&amp;dn=Iron.Man.3.2013.iTALiAN.BRRip.XviD.AC3.1400MB-FRG&amp;tr=udp%3A%2F%2Ftracker.openbittorrent.com%3A80&amp;tr=udp%3A%2F%2Fopen.demonii.com%3A1337&amp;tr=udp%3A%2F%2Ftracker.coppersurfer.tk%3A6969&amp;tr=udp%3A%2F%2Fexodus.desync.com%3A6969","seeders":5,"leechers":0,"uploader":"Helliod","files":1,"time":1377427829,"description":"Iron.Man.3.2013.iTALiAN.BRRip.XviD.AC3.1400MB-FRG.avi\n\n\n\nFile: Iron.Man.3.2013.iTALiAN.BRRip.XviD.AC3.1400MB-FRG.avi\nFilesize: 1400.85 Mb ( 1,468,900,652 bytes )\nPlay length: 02:10:32.860 (187801 frames)\nSubtitles: Not Present\nVideo: 720x304 (2.37:1), 23.976 fps, XviD MPEG-4 ~1045 kbps avg, 0.20 bit/pixel\nAudio: 48 kHz, AC3 Dolby Digital, 3/2 (L,C,R,l,r) + LFE ch, ~448 kbps\n\n\nGeneral\nComplete name                            : Iron.Man.3.2013.iTALiAN.BRRip.XviD.AC3.1400MB-FRG.avi\nFormat                                   : AVI\nFormat/Info                              : Audio Video Interleave\nFormat profile                           : OpenDML\nFormat settings                          : rec\nFile size                                : 1.37 GiB\nDuration                                 : 2h 10mn\nOverall bit rate                         : 1 500 Kbps\nWriting application                      : AVI-Mux GUI 1.17.8.3, Feb 16 201019:42:50\n\nVideo\nID                                       : 0\nFormat                                   : MPEG-4 Visual\nFormat profile                           : Advanced Simple@L5\nFormat settings, BVOP                    : 4\nFormat settings, QPel                    : No\nFormat settings, GMC                     : No warppoints\nFormat settings, Matrix                  : Default (H.263)\nMuxing mode                              : Packed bitstream\nCodec ID                                 : XVID\nCodec ID/Hint                            : XviD\nDuration                                 : 2h 10mn\nBit rate                                 : 1 047 Kbps\nWidth                                    : 720 pixels\nHeight                                   : 304 pixels\nDisplay aspect ratio                     : 2.35:1\nFrame rate                               : 23.976 fps\nColor space                              : YUV\nChroma subsampling                       : 4:2:0\nBit depth                                : 8 bits\nScan type                                : Progressive\nCompression mode                         : Lossy\nBits/(Pixel*Frame)                       : 0.199\nStream size                              : 977 MiB (70%)\nWriting library                          : XviD 64\n\nAudio\nID                                       : 1\nFormat                                   : AC-3\nFormat/Info                              : Audio Coding 3\nMode extension                           : CM (complete main)\nFormat settings, Endianness              : Big\nCodec ID                                 : 2000\nDuration                                 : 2h 10mn\nBit rate mode                            : Constant\nBit rate                                 : 448 Kbps\nChannel(s)                               : 6 channels\nChannel positions                        : Front: L C R, Side: L R, LFE\nSampling rate                            : 48.0 KHz\nBit depth                                : 16 bits\nCompression mode                         : Lossy\nStream size                              : 418 MiB (30%)\nAlignment                                : Aligned on interleaves\nInterleave, duration                     : 64 ms (1.53 video frames)\nInterleave, preload duration             : 192 ms\n\n","torrent":{"xt":"urn:btih:137f7ff5a32b89dbd03614c2498214807c1126a5","amp;dn":"Iron.Man.3.2013.iTALiAN.BRRip.XviD.AC3.1400MB-FRG","amp;tr":["udp%3A%2F%2Ftracker.openbittorrent.com%3A80","udp%3A%2F%2Fopen.demonii.com%3A1337","udp%3A%2F%2Ftracker.coppersurfer.tk%3A6969","udp%3A%2F%2Fexodus.desync.com%3A6969"],"infoHash":"137f7ff5a32b89dbd03614c2498214807c1126a5","infoHashBuffer":{"type":"Buffer","data":[19,127,127,245,163,43,137,219,208,54,20,194,73,130,20,128,124,17,38,165]},"announce":[],"urlList":[]}}